<svg xmlns="http://www.w3.org/2000/svg" xmlns:xlink="http://www.w3.org/1999/xlink" id="Layer_1" viewBox="0 0 255 60"><defs><style>      .st0 {        fill: #3d3e42;      }      .st0, .st1, .st2 {        fill-rule: evenodd;      }      .st2 {        fill: url(#linear-gradient);      }    </style><linearGradient id="linear-gradient" x1="249.2" y1="26.3" x2="232.2" y2="52.4" gradientTransform="translate(0 62) scale(1 -1)" gradientUnits="userSpaceOnUse"><stop offset="0" stop-color="#252965"></stop><stop offset=".2" stop-color="#25477d"></stop><stop offset=".6" stop-color="#2575a2"></stop><stop offset=".8" stop-color="#2593ba"></stop><stop offset="1" stop-color="#269ec3"></stop></linearGradient></defs><g id="Group-2"><polygon id="Fill-2" class="st0" points="216 50.6 255.5 50.6 255.5 48.9 216 48.9 216 50.6"></polygon><polygon id="Fill-4" class="st0" points=".5 50.6 40 50.6 40 48.9 .5 48.9 .5 50.6"></polygon><polygon id="Fill-5" class="st0" points="48.4 59.4 46.8 59.4 46.8 48.9 48.4 48.9 48.4 59.4"></polygon><polygon id="Fill-6" class="st0" points="61.4 59.4 61.4 49 63.2 48.9 68.8 56.1 68.8 48.9 70.8 48.9 70.8 59.4 69 59.4 63.4 52.3 63.4 59.4 61.4 59.4"></polygon><path id="Fill-7" class="st0" d="M86,56.3c.5,1,1.4,1.7,2.6,1.7s1.7-.5,1.7-1.2-.7-1.1-1.9-1.5c-1.9-.6-3.5-1.3-3.5-3.3s1.8-3.1,3.5-3.1,3.1,1.1,3.7,2.3l-1.5,1.2c-.4-.8-1.2-1.6-2.2-1.6s-1.5.4-1.5,1.2.7,1,2,1.5c1.9.7,3.4,1.2,3.4,3.4s-2,3.2-3.7,3.2-3.4-1.1-4-2.5l1.5-1.1v-.2Z"></path><polygon id="Fill-9" class="st0" points="102.8 48.9 111.1 48.9 111.1 50.8 108 50.8 108 59.4 106 59.4 106 50.8 102.8 50.8 102.8 48.9"></polygon><polygon id="Fill-11" class="st0" points="126.4 59.4 124.7 59.4 124.7 48.9 126.3 48.9 126.4 59.4"></polygon><polygon id="Fill-13" class="st0" points="139.3 48.9 147.6 48.9 147.6 50.8 144.5 50.8 144.5 59.4 142.5 59.4 142.5 50.8 139.3 50.8 139.3 48.9"></polygon><path id="Fill-15" class="st0" d="M158.8,55.4v-6.4h2v6.4c0,1.4,1,2.3,2.4,2.3s2.4-.9,2.4-2.3v-6.4h2v6.4c0,2.5-1.7,4.1-4.4,4.1s-4.4-1.6-4.4-4.1"></path><polygon id="Fill-17" class="st0" points="180.7 48.9 189 48.9 189 50.8 185.9 50.8 185.9 59.4 183.9 59.4 183.9 50.8 180.7 50.8 180.7 48.9"></polygon><polygon id="Fill-19" class="st0" points="201.4 48.9 208.5 48.9 208.5 50.7 203.4 50.7 203.4 53.2 207.8 53.2 207.8 55 203.4 55 203.4 57.6 208.6 57.6 208.6 59.4 201.5 59.4 201.4 48.9"></polygon></g><polygon id="Fill-21" class="st0" points="22.1 38.2 .8 38.2 .8 8.9 7.7 8.9 7.7 32.2 22.1 32.2 22.1 38.2"></polygon><polygon id="Fill-23" class="st0" points="30.1 38.2 37.2 38.2 37.2 8.9 30.1 8.9 30.1 38.2"></polygon><polygon id="Fill-25" class="st0" points="47 8.9 68.4 8.9 68.4 14.9 54.1 14.9 54.1 20.5 65.3 20.5 65.3 26.4 54.1 26.4 54.1 38.2 47 38.2 47 8.9"></polygon><polygon id="Fill-26" class="st0" points="77.3 8.9 97.5 8.9 97.5 14.9 84.2 14.9 84.2 20.3 95.8 20.3 95.8 26.3 84.2 26.3 84.2 32.2 97.7 32.2 97.7 38.2 77.3 38.2 77.3 8.9"></polygon><path id="Fill-34" class="st0" d="M119,8.9c5.2,0,9.8,2.8,12.2,6.4l-5.3,3.9c-1.3-1.9-3.5-3.9-6.9-3.9s-8,3.4-8,8.2,3.2,8.2,8,8.2,6-1.3,6.8-4h-7.5v-5.8h14.9c0,.8.1,1.8.1,3,0,7.7-6.3,13.3-14.3,13.3s-15-6.3-15-14.7,6.6-14.6,15-14.6"></path><polygon id="Fill-35" class="st0" points="142.2 8.9 162.4 8.9 162.4 14.9 149.1 14.9 149.1 20.3 160.8 20.3 160.8 26.3 149.1 26.3 149.1 32.2 162.6 32.2 162.6 38.2 142.2 38.2 142.2 8.9"></polygon><polygon id="Fill-36" class="st0" points="171.5 38.2 171.5 8.9 177.3 8.9 191.4 26.8 191.4 8.9 198.2 8.9 198.2 38.2 192.3 38.2 178.3 20.5 178.3 38.2 171.5 38.2"></polygon><polygon id="Fill-37" class="st0" points="209.8 38.2 216.9 38.2 216.9 8.9 209.8 8.9 209.8 38.2"></polygon><path id="Fill-40" class="st1" d="M223.5,37.7h0"></path><path class="st2" d="M236.3,17.6c.3-.2.7-.4,1-.6l-5.3-8.1h-8l7.9,11.5c1.5-1,2.9-1.9,4.4-2.8M243.3,26.8c-1.1.7-2.2,1.5-3.3,2.2l5.8,9.1h7.5l-8.4-12.4c-.5.4-1.1.7-1.6,1.1M244,0c2.2,2,3.4,4,4.1,5.8h-4.6c0-.2-.2-.3-.3-.5-.6-.5-1.5-.5-2,0-.6.5-.6,1.4,0,2,.6.5,1.5.5,2,0,.1,0,.2-.3.3-.5h4.9c.3,1.1.3,2,.3,2.8s-.1.9-.2,1.3h-5c0-.2-.2-.3-.3-.5-.6-.5-1.5-.5-2,0-.6.5-.6,1.4,0,2,.6.5,1.5.5,2,0,.1-.1.2-.3.3-.5h4.6c-3.1,6.4-16.6,8.9-21.2,17.1-2.4,4.2-.7,10.1,3.6,13.5-.6-1.5-.8-2.9-.8-4.2h5.7c0,.2.2.3.3.5.6.5,1.5.5,2,0,.6-.5.6-1.4,0-2-.6-.5-1.5-.5-2,0-.1,0-.2.3-.3.5h-5.6c.2-1.3.6-2.5,1.3-3.6h4.5c0,.2.2.3.3.5.6.5,1.5.5,2,0,.6-.5.6-1.4,0-2-.6-.5-1.5-.5-2,0-.1,0-.2.3-.3.5h-3.8c6-7.8,22.9-11.3,23.4-21.3C255.5,4.8,247.8-.4,244.1,0"></path></svg>