<?xml version="1.0" encoding="UTF-8"?>
<svg width="1200pt" height="1200pt" version="1.1" viewBox="0 0 1200 1200" xmlns="http://www.w3.org/2000/svg">
 <path d="m0.27734 703.61h758.54v71.102h-758.54z"/>
 <path d="m595.64 554.14c0-49.727 40.32-89.977 89.977-89.977 49.609 0 90.035 40.246 90.035 89.977 0 49.57-40.43 90-90.035 90-49.656 0-89.977-40.426-89.977-90z"/>
 <path d="m480.6 461.02h-301.39l-179.21 27.43v155.57l90.445 0.046875c-7.1758-11.617-11.52-25.176-11.52-39.758 0-42 34.141-76.129 76.129-76.129h165.06l133.79-27.961 7.4141 35.531-137.46 28.715-168.82 0.007812c-22.008 0-39.828 17.82-39.828 39.84 0 21.805 17.543 39.48 39.312 39.758l326.8 0.035157c50.52-0.39453 91.078-41.113 91.078-91.441 0-50.566-40.906-91.641-91.797-91.641z"/>
 <path d="m636.56 965.59c201.07 0 364.04-163 364.04-364.07 0-201.09-162.97-364.07-364.04-364.07-131.44 0-246.28 69.949-310.29 174.39h152.46c42.996-36.012 98.293-57.742 158.76-57.742 136.62 0 247.39 110.79 247.39 247.41 0 136.67-110.77 247.45-247.39 247.45-38.773 0-75.289-9.1797-107.95-25.055l-180.74-0.003907c66.562 86.039 170.55 141.67 287.76 141.67z"/>
 <path d="m636.56 36.57c-249.12 0-460.3 161.8-534.67 385.97l69.434-10.812 112.66 0.035157c67.621-125.42 200.14-210.68 352.58-210.68 221.16 0 400.4 179.3 400.4 400.44 0 221.17-179.26 400.43-400.4 400.43-138.85 0-261.12-70.754-332.94-178.11h-184.11c86.566 199.75 285.45 339.59 517.04 339.59 311.18-0.003906 563.45-252.24 563.45-563.43 0-311.16-252.27-563.44-563.44-563.44zm127.85 128.14c-2.0391 8.1367-9.2891 13.559-17.305 13.559-1.4414 0-2.9141-0.15625-4.3438-0.55078-68.746-17.148-141.77-17.148-210.59 0-9.5625 2.5547-19.262-3.4336-21.66-12.996-2.3867-9.5625 3.4336-19.262 13.043-21.648 74.449-18.59 153.42-18.59 227.86 0 9.5703 2.375 15.391 12.059 13 21.637z"/>
</svg>
